<svg width="41" height="33" viewBox="0 0 41 33" fill="none" xmlns="http://www.w3.org/2000/svg">
<path d="M39.6356 18.2952C40.2603 17.6627 40.6084 16.8081 40.6034 15.9191C40.5983 15.0301 40.2407 14.1795 39.6089 13.5541L26.8886 0.969533C26.2557 0.343768 25.4002 -0.00496805 24.5102 4.45335e-05C23.6203 0.00505712 22.7687 0.363408 22.143 0.996262C21.5172 1.62912 21.1685 2.48464 21.1735 3.37461C21.1785 4.26459 21.5368 5.11613 22.1697 5.74189L29.1326 12.629L3.33576 12.7743C2.44606 12.7793 1.5948 13.1376 0.969236 13.7702C0.343669 14.4029 -0.00495497 15.2581 5.60085e-05 16.1478C0.00506698 17.0375 0.363303 17.8888 0.995956 18.5143C1.62861 19.1399 2.48385 19.4885 3.37355 19.4835L29.1704 19.3382L22.2855 26.3011C21.9756 26.6144 21.7305 26.9858 21.5642 27.3938C21.3979 27.8019 21.3135 28.2388 21.316 28.6794C21.3185 29.1201 21.4077 29.556 21.5787 29.9622C21.7496 30.3683 21.9989 30.7369 22.3122 31.0467C22.6256 31.3566 22.9969 31.6017 23.405 31.768C23.813 31.9343 24.2499 32.0187 24.6906 32.0162C25.1312 32.0137 25.5671 31.9245 25.9733 31.7535C26.3795 31.5826 26.748 31.3333 27.0579 31.02L39.6356 18.2952Z" fill="#00B8EA"/>
</svg>
