<svg width="40" height="44" viewBox="0 0 40 44" fill="none" xmlns="http://www.w3.org/2000/svg">
<path fill-rule="evenodd" clip-rule="evenodd" d="M12.3344 7.47545C12.9911 7.67409 13.8441 8.20614 14.4782 8.53247C15.0594 8.83042 15.0821 8.75238 15.2934 9.33409C15.4218 9.69589 15.5426 10.079 15.6633 10.4337C16.1917 11.9447 16.7428 13.4841 17.2712 14.9809C17.9958 17.0666 26.6088 41.4346 26.7824 42.3143C26.2917 42.144 25.635 41.6971 25.1519 41.4204C24.2612 40.9026 24.3593 41.1225 23.9366 40.1435L19.4603 30.0842C18.7356 28.4171 13.9875 17.471 13.4289 16.8112C13.0591 16.5416 12.2816 17.5986 11.8664 18.1378C10.6662 19.6914 3.41951 28.7008 3.15531 29.3038C2.67975 29.1974 1.50217 28.566 1.17758 28.2752L12.3419 7.47545H12.3344ZM13.361 6.76605C14.0932 6.18434 21.355 2.38903 22.8798 1.53774C23.6271 1.1192 23.7554 0.856717 24.5858 1.33202C25.0462 1.5945 25.7105 1.96339 26.171 2.12655C25.7482 2.67279 17.4523 6.99306 16.5843 7.46127C15.7162 7.92947 15.8143 8.17776 14.9085 7.65281C14.4103 7.36195 13.7686 7.10656 13.3686 6.76605H13.361ZM0 28.8072C0.543499 29.1336 1.18513 29.4599 1.84186 29.8288C3.59313 30.8219 2.74014 30.7226 7.72221 28.034L15.452 23.8201C15.8445 24.189 21.906 38.0862 22.993 40.5408C23.6497 42.0234 23.8309 41.7893 25.1217 42.5342C28.4431 44.4638 27.0994 44.5418 30.919 42.4491C32.2853 41.6971 39.8641 37.7173 40 37.3484C40.0075 36.7313 36.3767 26.4662 36.0445 26.0051C35.0028 25.8632 34.3159 26.0476 33.1685 25.771C27.8166 24.487 25.401 18.0669 30.1189 13.8885C31.5682 12.6044 31.772 13.477 30.9417 11.0721L27.7788 2.0627C27.5901 1.73638 24.2763 -0.171919 23.6195 0.0125264C23.295 0.104749 21.9664 0.899281 21.5588 1.1192C18.8639 2.57347 16.1993 4.00647 13.4893 5.50331C11.2097 6.75896 11.9494 6.10631 10.5605 8.67435L2.00793 24.5792C1.54746 25.4305 -0.0603887 27.9347 0.00754859 28.793L0 28.8072Z" fill="#000020"/>
<path fill-rule="evenodd" clip-rule="evenodd" d="M1.17759 28.2752C1.50218 28.5731 2.67976 29.2045 3.15532 29.3038C3.41952 28.7008 10.6662 19.6985 11.8664 18.1378C12.2816 17.5987 13.0817 16.5346 13.429 16.8112C13.9876 17.471 18.7281 28.4171 19.4603 30.0842L23.9366 40.1435C24.3518 41.1225 24.2536 40.9097 25.1519 41.4204C25.6275 41.6971 26.2842 42.144 26.7824 42.3143C26.6088 41.4346 18.0034 17.0666 17.2712 14.981C16.7503 13.4841 16.1993 11.9447 15.6633 10.4337C15.5426 10.079 15.4218 9.6959 15.2935 9.3341C15.0821 8.75239 15.0595 8.83043 14.4782 8.53248C13.8441 8.20615 12.9911 7.6741 12.3344 7.47546L1.17004 28.2752H1.17759Z" fill="white"/>
<path fill-rule="evenodd" clip-rule="evenodd" d="M34.0592 15.7187C35.735 15.286 38.3016 16.3927 37.8486 17.7689C36.822 20.9258 32.9647 21.8196 32.2023 21.3656C31.1983 20.7697 30.0358 16.7545 34.0592 15.7116V15.7187ZM34.2178 14.683C27.9524 15.5839 29.5603 24.5153 35.7048 23.508C38.0223 23.1249 40.0226 21.0535 39.5773 18.4145C39.2149 16.2508 36.9881 14.2857 34.2178 14.683Z" fill="#000020"/>
<path fill-rule="evenodd" clip-rule="evenodd" d="M34.0592 15.7187C30.0358 16.7616 31.1983 20.7697 32.2022 21.3727C32.9647 21.8267 36.8295 20.9258 37.8486 17.776C38.294 16.3927 35.7274 15.2931 34.0592 15.7258V15.7187ZM13.3685 6.77315C13.761 7.11367 14.4027 7.36905 14.9084 7.65991C15.8218 8.18487 15.7161 7.93658 16.5842 7.46837C17.4598 7.00016 25.7482 2.68699 26.1709 2.13365C25.7105 1.97049 25.0462 1.59451 24.5857 1.33912C23.7554 0.863819 23.627 1.1263 22.8797 1.54485C21.3549 2.39613 14.0932 6.19144 13.361 6.77315H13.3685Z" fill="white"/>
</svg>
