<svg width="44" height="44" viewBox="0 0 44 44" fill="none" xmlns="http://www.w3.org/2000/svg">
<g clip-path="url(#clip0_59_632)">
<path fill-rule="evenodd" clip-rule="evenodd" d="M22 0.00146484C9.85111 0.00146484 0.000274658 10.1004 0.000274658 22.5585C0.000274658 32.5244 6.30423 40.9798 15.0447 43.9624C16.1446 44.1715 16.5485 43.4732 16.5485 42.8776C16.5485 42.3397 16.5281 40.5626 16.5182 38.6776C10.3979 40.0423 9.10676 36.0165 9.10676 36.0165C8.10565 33.4095 6.66387 32.716 6.66387 32.716C4.66747 31.316 6.81426 31.3443 6.81426 31.3443C9.02341 31.5039 10.1863 33.6692 10.1863 33.6692C12.1489 37.1177 15.3332 36.1208 16.5887 35.5444C16.7863 34.0867 17.3561 33.091 17.9853 32.528C13.099 31.9584 7.96255 30.0238 7.96255 21.3805C7.96255 18.9182 8.82173 16.9056 10.2288 15.3263C10.0006 14.7579 9.24753 12.4635 10.4425 9.35658C10.4425 9.35658 12.2896 8.74995 16.4929 11.6686C18.2482 11.169 20.1301 10.9185 21.9997 10.9096C23.8693 10.9185 25.7529 11.169 27.5109 11.6686C31.7101 8.75025 33.5549 9.35628 33.5549 9.35628C34.7522 12.4629 33.9994 14.7573 33.7706 15.3254C35.1812 16.905 36.0345 18.9173 36.0345 21.3796C36.0345 30.0441 30.8882 31.9513 25.9896 32.5098C26.7785 33.2102 27.4818 34.5827 27.4818 36.6874C27.4818 39.7056 27.4567 42.135 27.4567 42.8776C27.4567 43.4783 27.8522 44.1811 28.9673 43.96C37.7048 40.9741 44 32.5217 44 22.5588C43.9997 10.1004 34.15 0.00146484 22 0.00146484Z" fill="#1B1817"/>
<path d="M8.33501 32.387C8.28634 32.4994 8.11438 32.5334 7.95788 32.4557C7.79758 32.3822 7.70869 32.2292 7.76027 32.1169C7.80778 32.0018 7.97973 31.9698 8.13916 32.0466C8.29887 32.1204 8.3898 32.2746 8.33501 32.387ZM9.22364 33.4066C9.11871 33.5064 8.91324 33.4604 8.77481 33.3026C8.63025 33.1451 8.60373 32.9345 8.7101 32.8335C8.81794 32.734 9.01729 32.7806 9.16097 32.9381C9.30524 33.097 9.33351 33.3056 9.22364 33.4066ZM10.091 34.7065C9.95605 34.8031 9.73542 34.7131 9.59902 34.5123C9.46408 34.3115 9.46408 34.0709 9.60194 33.9744C9.73892 33.8782 9.95605 33.9654 10.0945 34.1639C10.2286 34.368 10.2286 34.6082 10.091 34.7065ZM11.2821 35.9619C11.1615 36.0982 10.9047 36.0614 10.7167 35.8753C10.5244 35.6936 10.4707 35.4354 10.5914 35.2991C10.7138 35.1626 10.972 35.2005 11.1615 35.3858C11.3524 35.5669 11.4104 35.8269 11.2821 35.9619ZM12.9215 36.6902C12.8679 36.8665 12.6213 36.9472 12.3719 36.8716C12.1227 36.7945 11.9598 36.5877 12.0105 36.4093C12.0618 36.2315 12.3107 36.1478 12.5613 36.2282C12.8099 36.305 12.9734 36.5106 12.9215 36.6902ZM14.7212 36.8247C14.7271 37.0108 14.5161 37.1653 14.2549 37.1683C13.9914 37.1743 13.7784 37.0237 13.7755 36.8408C13.7755 36.6525 13.9824 36.5001 14.2447 36.4956C14.507 36.4897 14.7212 36.64 14.7212 36.8244M16.3971 36.5333C16.4282 36.7144 16.2467 36.9009 15.9867 36.9505C15.7314 36.9989 15.495 36.8865 15.4627 36.7069C15.4306 36.5207 15.6157 36.3346 15.8707 36.2865C16.131 36.2398 16.3638 36.3489 16.3971 36.5333Z" fill="#1B1817"/>
</g>
<defs>
<clipPath id="clip0_59_632">
<rect width="44" height="44" fill="white"/>
</clipPath>
</defs>
</svg>
