<svg width="16" height="20" viewBox="0 0 16 20" fill="none" xmlns="http://www.w3.org/2000/svg">
<path d="M0 2.42934C1.89967e-05 2.29636 0.026561 2.16472 0.078073 2.04212C0.129585 1.91952 0.205033 1.80843 0.3 1.71534C1.38984 0.646982 2.84585 0.0340758 4.37166 0.00137862C5.89746 -0.0313186 7.37839 0.518651 8.513 1.53934L8.864 1.86734C9.59343 2.50644 10.5302 2.85877 11.5 2.85877C12.4698 2.85877 13.4066 2.50644 14.136 1.86734L14.385 1.64034C14.995 1.15734 15.912 1.54334 15.995 2.31634L16 2.42934V11.4293C16 11.5623 15.9734 11.694 15.9219 11.8166C15.8704 11.9392 15.795 12.0503 15.7 12.1433C14.6102 13.2117 13.1542 13.8246 11.6283 13.8573C10.1025 13.89 8.62161 13.34 7.487 12.3193L7.136 11.9913C6.42953 11.3723 5.52777 11.0217 4.58872 11.0009C3.64967 10.98 2.73323 11.2903 2 11.8773V18.4293C1.99972 18.6842 1.90212 18.9294 1.72715 19.1147C1.55218 19.3 1.31305 19.4116 1.05861 19.4265C0.804163 19.4415 0.553621 19.3587 0.358168 19.1951C0.162715 19.0315 0.0371036 18.7994 0.00699997 18.5463L0 18.4293V2.42934Z" fill="currentColor"/>
</svg>
