<svg width="44" height="44" viewBox="0 0 44 44" fill="none" xmlns="http://www.w3.org/2000/svg">
<path d="M22 0C9.84867 0 0 9.84867 0 22C0 34.1513 9.84867 44 22 44C34.1513 44 44 34.1513 44 22C44 9.84867 34.1513 0 22 0ZM32.4427 27.3955C24.9205 34.9177 11.4822 32.5178 11.4822 32.5178C11.4822 32.5178 9.05667 19.1052 16.6045 11.5573C20.7863 7.3755 27.7163 7.54783 32.0962 11.9038C36.476 16.2598 36.6263 23.2118 32.4427 27.3955ZM24.5245 12.8938L22.3722 17.3232L17.9428 19.4755L22.3722 21.6278L24.5245 26.0572L26.6768 21.6278L31.1062 19.4755L26.6768 17.3232L24.5245 12.8938Z" fill="black"/>
</svg>
