<svg width="40" height="44" viewBox="0 0 40 44" fill="none" xmlns="http://www.w3.org/2000/svg">
<path d="M18.1868 0.470041C19.2924 -0.155299 20.702 -0.15806 21.78 0.470041L38.2863 9.76455C39.3186 10.3443 40.0096 11.4942 39.9999 12.6828V31.3188C40.0068 32.557 39.2481 33.7318 38.1591 34.3005L21.7413 43.5522C21.1797 43.8622 20.5453 44.0163 19.904 43.9986C19.2627 43.9809 18.6378 43.792 18.0942 43.4515L13.1675 40.6078C12.8317 40.4076 12.4544 40.2488 12.2167 39.9244C12.4268 39.6428 12.7999 39.6069 13.1039 39.4827C13.7894 39.2646 14.4168 38.9305 15.047 38.5771C15.2059 38.4667 15.4008 38.5081 15.5528 38.6075L19.754 41.0343C20.0539 41.2069 20.3579 40.9791 20.615 40.8341L36.7357 31.7467C36.9347 31.6501 37.0452 31.4402 37.0287 31.2221V12.7656C37.0508 12.5172 36.9084 12.2908 36.6832 12.19L20.3068 2.9783C20.2124 2.9131 20.1004 2.87806 19.9857 2.87781C19.8709 2.87757 19.7588 2.91213 19.6642 2.97692L3.31126 12.2079C3.09014 12.3087 2.93812 12.5323 2.96576 12.7808V31.2373C2.94642 31.4554 3.0625 31.6611 3.26289 31.755L7.63269 34.2191C8.45358 34.6608 9.46104 34.9093 10.3649 34.5849C10.7604 34.436 11.1009 34.1699 11.3407 33.8223C11.5805 33.4746 11.7083 33.062 11.7067 32.6398L11.7109 14.2938C11.6915 14.0218 11.9486 13.7968 12.2126 13.8244H14.3132C14.5895 13.8175 14.8065 14.1102 14.7692 14.3835L14.7651 32.8455C14.7664 34.4855 14.092 36.269 12.5732 37.0738C10.7021 38.0401 8.38863 37.8372 6.53955 36.9082L1.84084 34.3129C0.735258 33.7608 -0.00686202 32.5681 4.7846e-05 31.3312V12.6952C0.00464475 12.0895 0.171344 11.4961 0.482864 10.9764C0.794384 10.4567 1.23939 10.0297 1.77174 9.73971L18.1868 0.470041ZM22.9463 13.3882C25.333 13.2502 27.8883 13.2971 30.0359 14.4719C31.6984 15.3719 32.6202 17.2604 32.6506 19.1074C32.6036 19.3559 32.3438 19.4939 32.1061 19.476C31.4151 19.4746 30.7213 19.4856 30.0276 19.4718C29.7332 19.4829 29.5632 19.2123 29.5259 18.9528C29.3269 18.0693 28.8446 17.1955 28.0127 16.7689C26.7357 16.1298 25.2542 16.1615 23.8612 16.1753C22.8441 16.2305 21.7509 16.3175 20.89 16.9139C20.2266 17.3666 20.0276 18.2943 20.2639 19.0149C20.485 19.5436 21.0973 19.7134 21.5962 19.8708C24.4734 20.6217 27.5207 20.561 30.344 21.537C31.5118 21.94 32.6547 22.7241 33.0555 23.9458C33.5779 25.583 33.3498 27.5405 32.1848 28.8547C31.2396 29.9369 29.8631 30.5112 28.4881 30.8453C26.6597 31.2525 24.7636 31.2622 22.9076 31.0799C21.1622 30.8812 19.3463 30.4229 17.9989 29.2357C16.8463 28.2362 16.2852 26.6791 16.3405 25.1772C16.3543 24.9232 16.6072 24.7465 16.8518 24.7672H18.9248C19.204 24.7479 19.4085 24.9881 19.4223 25.2503C19.5508 26.0786 19.8673 26.9759 20.6025 27.4591C22.0204 28.3729 23.799 28.3094 25.4215 28.3356C26.7661 28.2763 28.2752 28.2583 29.3739 27.3693C29.9543 26.8627 30.1243 26.0165 29.9681 25.2876C29.7982 24.6719 29.139 24.3862 28.5862 24.1833C25.7462 23.286 22.6644 23.6118 19.8521 22.5958C18.7106 22.1927 17.6064 21.4307 17.1683 20.2587C16.5561 18.6021 16.8366 16.5494 18.126 15.2794C19.3698 14.0163 21.194 13.529 22.9215 13.3551L22.9463 13.3882Z" fill="#8CC84B"/>
</svg>
