<svg width="43" height="47" viewBox="0 0 43 47" fill="none" xmlns="http://www.w3.org/2000/svg">
<path d="M41.6356 18.9316C41.6356 16.1158 38.1909 13.4471 32.9094 11.7923C34.1282 6.2817 33.5866 1.89751 31.1996 0.493874C30.6494 0.164625 30.0063 0.00866021 29.3038 0.00866021V1.94084C29.6931 1.94084 30.0063 2.01882 30.2686 2.1661C31.4197 2.84192 31.9192 5.41526 31.5297 8.72505C31.4368 9.53952 31.2844 10.3973 31.0982 11.2724C29.4391 10.8565 27.6279 10.5359 25.7236 10.328C24.581 8.72505 23.396 7.26943 22.2026 5.99577C24.9618 3.37046 27.5518 1.93216 29.3123 1.93216V0C26.9846 0 23.9377 1.69823 20.8569 4.64411C17.776 1.71555 14.729 0.0346609 12.4015 0.0346609V1.96682C14.1535 1.96682 16.7519 3.39646 19.5111 6.00443C18.3261 7.27811 17.1412 8.72505 16.0155 10.328C14.1026 10.5359 12.2914 10.8565 10.6325 11.281C10.4378 10.4146 10.2939 9.57416 10.1923 8.76837C9.79465 5.45858 10.2854 2.88524 11.4282 2.20076C11.682 2.0448 12.012 1.9755 12.4015 1.9755V0.0433211C11.6905 0.0433211 11.0472 0.199286 10.4887 0.528535C8.11024 1.93216 7.57709 6.30768 8.80426 11.8009C3.53977 13.4645 0.111908 16.1245 0.111908 18.9316C0.111908 21.7477 3.55669 24.4164 8.83813 26.0711C7.6193 31.5818 8.16096 35.9659 10.5479 37.3695C11.0981 37.6987 11.7412 37.8547 12.4522 37.8547C14.7798 37.8547 17.8269 36.1565 20.9076 33.2106C23.9884 36.1393 27.0355 37.8202 29.363 37.8202C30.0739 37.8202 30.7172 37.6642 31.2759 37.3349C33.6541 35.9312 34.1875 31.5557 32.9601 26.0626C38.2077 24.4076 41.6356 21.739 41.6356 18.9316ZM30.6158 13.1526C30.3025 14.2703 29.9132 15.4225 29.473 16.5749C29.1261 15.8819 28.7621 15.1887 28.3643 14.4955C27.975 13.8024 27.5601 13.1266 27.1455 12.4681C28.3473 12.65 29.5069 12.8753 30.6158 13.1526ZM26.7391 22.3801C26.079 23.5499 25.402 24.6589 24.6995 25.69C23.4382 25.8026 22.1604 25.8632 20.8738 25.8632C19.5957 25.8632 18.3176 25.8026 17.0651 25.6986C16.3626 24.6675 15.6769 23.5672 15.0167 22.4061C14.3734 21.2711 13.7896 20.1187 13.2562 18.9578C13.781 17.7967 14.3734 16.6356 15.0084 15.5006C15.6685 14.331 16.3455 13.2219 17.0481 12.1908C18.3093 12.0782 19.5872 12.0175 20.8738 12.0175C22.1518 12.0175 23.4299 12.0782 24.6824 12.1822C25.385 13.2132 26.0707 14.3136 26.7308 15.4747C27.3741 16.6096 27.958 17.762 28.4913 18.9231C27.958 20.084 27.3741 21.2452 26.7391 22.3801ZM29.473 21.2539C29.9173 22.383 30.3071 23.5338 30.6411 24.7021C29.5322 24.9794 28.3643 25.2134 27.154 25.3954C27.5687 24.7283 27.9833 24.0438 28.3728 23.3419C28.7621 22.6488 29.1261 21.9469 29.473 21.2539ZM20.8906 30.4988C20.1035 29.6668 19.3163 28.7398 18.5377 27.7261C19.2995 27.7608 20.0781 27.7867 20.8652 27.7867C21.6609 27.7867 22.448 27.7695 23.2183 27.7261C22.4918 28.6926 21.7148 29.6182 20.8906 30.4988ZM14.5935 25.3954C13.3917 25.2134 12.2321 24.9881 11.1235 24.7109C11.4365 23.5931 11.826 22.4407 12.266 21.2884C12.6131 21.9816 12.9771 22.6748 13.3747 23.3678C13.7725 24.061 14.1789 24.7368 14.5935 25.3954ZM20.8484 7.36475C21.6355 8.19652 22.4227 9.12362 23.2013 10.1374C22.4395 10.1027 21.6609 10.0767 20.8738 10.0767C20.0781 10.0767 19.291 10.094 18.5209 10.1374C19.2473 9.17089 20.0243 8.24534 20.8484 7.36475ZM14.585 12.4681C14.1704 13.1352 13.7557 13.8197 13.3664 14.5214C12.9771 15.2147 12.6131 15.9079 12.266 16.6009C11.8217 15.4718 11.4319 14.3209 11.0981 13.1526C12.2068 12.884 13.3747 12.65 14.585 12.4681ZM6.92528 23.3159C3.92912 22.0075 1.99088 20.2921 1.99088 18.9316C1.99088 17.5714 3.92912 15.8472 6.92528 14.5476C7.65317 14.227 8.44882 13.941 9.26984 13.6724C9.75226 15.3706 10.387 17.1382 11.1742 18.9491C10.3956 20.7513 9.7691 22.5101 9.2952 24.1998C8.45734 23.931 7.66169 23.6365 6.92528 23.3159ZM11.4789 35.6973C10.3278 35.0216 9.82834 32.4482 10.2178 29.1383C10.311 28.324 10.4631 27.4661 10.6494 26.591C12.3084 27.0069 14.1196 27.3276 16.024 27.5355C17.1665 29.1383 18.3515 30.5939 19.545 31.8676C16.7857 34.493 14.1957 35.9312 12.4352 35.9312C12.0544 35.9227 11.7329 35.8446 11.4789 35.6973ZM31.5552 29.0951C31.9529 32.4048 31.4621 34.9782 30.3194 35.6627C30.0656 35.8186 29.7355 35.888 29.346 35.888C27.594 35.888 24.9957 34.4583 22.2364 31.8503C23.4214 30.5767 24.6064 29.1298 25.7321 27.5267C27.6449 27.3188 29.4562 26.9982 31.115 26.5737C31.3098 27.4489 31.4621 28.2893 31.5552 29.0951ZM34.8137 23.3159C34.0858 23.6365 33.2902 23.9225 32.4692 24.191C31.9868 22.4929 31.352 20.7253 30.5648 18.9144C31.3436 17.1122 31.9699 15.3534 32.4438 13.6638C33.2819 13.9324 34.0773 14.227 34.8223 14.5476C37.8184 15.8558 39.7566 17.5714 39.7566 18.9316C39.7481 20.2921 37.8099 22.0163 34.8137 23.3159Z" fill="#61DAFB"/>
<path d="M20.8652 22.774C23.0016 22.774 24.7333 21.0012 24.7333 18.8142C24.7333 16.6274 23.0016 14.8547 20.8652 14.8547C18.729 14.8547 16.9973 16.6274 16.9973 18.8142C16.9973 21.0012 18.729 22.774 20.8652 22.774ZM1.9974 44.5549H0.720551V46.8061H0V41.2413H1.79952C2.4118 41.2413 2.88223 41.3841 3.21076 41.6695C3.5418 41.9547 3.70733 42.3701 3.70733 42.9153C3.70733 43.2619 3.61523 43.5637 3.43104 43.8212C3.24935 44.0785 2.99548 44.2709 2.66942 44.3982L3.94627 46.7601V46.8061H3.17717L1.9974 44.5549ZM0.720551 43.9549H1.82193C2.17786 43.9549 2.46035 43.8606 2.66942 43.672C2.88098 43.4835 2.98675 43.2313 2.98675 42.9153C2.98675 42.5714 2.88595 42.3077 2.68435 42.1242C2.48523 41.9407 2.19652 41.8477 1.81819 41.8452H0.720551V43.9549ZM6.28348 46.8826C5.73584 46.8826 5.2903 46.6991 4.94683 46.3322C4.60334 45.9627 4.43161 45.4696 4.43161 44.8531V44.7231C4.43161 44.3129 4.50752 43.9473 4.65934 43.6263C4.81367 43.3026 5.02772 43.0503 5.3015 42.8696C5.57779 42.6861 5.87646 42.5942 6.19754 42.5942C6.72275 42.5942 7.13099 42.7713 7.42207 43.1255C7.71334 43.4797 7.85888 43.9867 7.85888 44.6466V44.9409H5.12229C5.13225 45.3487 5.248 45.6787 5.46951 45.9309C5.69352 46.1805 5.97726 46.3054 6.32076 46.3054C6.56472 46.3054 6.7712 46.2545 6.9404 46.1526C7.10979 46.0506 7.25779 45.9156 7.38479 45.7474L7.80665 46.0838C7.46806 46.6162 6.96046 46.8826 6.28348 46.8826ZM6.19754 43.1753C5.91878 43.1753 5.68481 43.2797 5.49565 43.4886C5.30648 43.6951 5.1895 43.9855 5.1447 44.36H7.16827V44.3066C7.1484 43.9474 7.05377 43.6695 6.88457 43.4733C6.71518 43.2747 6.48618 43.1753 6.19754 43.1753ZM11.1556 46.8061C11.1157 46.7245 11.0833 46.5794 11.0585 46.3703C10.7373 46.7117 10.3541 46.8826 9.90857 46.8826C9.51037 46.8826 9.18314 46.7679 8.92669 46.5385C8.67289 46.3066 8.5459 46.0136 8.5459 45.6595C8.5459 45.229 8.70525 44.8951 9.02378 44.6582C9.34476 44.4185 9.79539 44.2988 10.3753 44.2988H11.0474V43.9741C11.0474 43.7269 10.9751 43.5306 10.8308 43.3855C10.6864 43.2377 10.4735 43.1638 10.1923 43.1638C9.94586 43.1638 9.73937 43.2274 9.57263 43.3549C9.4059 43.4822 9.32243 43.6364 9.32243 43.8173H8.62804C8.62804 43.611 8.69901 43.4122 8.84076 43.221C8.98517 43.0275 9.17935 42.8746 9.42331 42.7624C9.66972 42.6504 9.93961 42.5942 10.2333 42.5942C10.6989 42.5942 11.0634 42.714 11.3273 42.9536C11.5911 43.1906 11.7279 43.518 11.738 43.9357V45.8391C11.738 46.2188 11.7853 46.5207 11.8799 46.7448V46.8061H11.1556ZM10.0094 46.2672C10.226 46.2672 10.4313 46.2099 10.6255 46.0952C10.8195 45.9805 10.9601 45.8315 11.0474 45.648V44.7996H10.5059C9.65969 44.7996 9.23651 45.053 9.23651 45.5601C9.23651 45.7817 9.30881 45.9551 9.45302 46.0799C9.59743 46.2047 9.7829 46.2672 10.0094 46.2672ZM14.441 46.3054C14.6874 46.3054 14.9028 46.2289 15.0869 46.076C15.2711 45.9232 15.3731 45.7321 15.393 45.5027H16.0465C16.034 45.7397 15.9543 45.9652 15.8074 46.1793C15.6606 46.3934 15.4639 46.5641 15.2175 46.6914C14.9736 46.8188 14.7148 46.8826 14.441 46.8826C13.891 46.8826 13.4528 46.6952 13.1268 46.3207C12.8033 45.9435 12.6415 45.4289 12.6415 44.7766V44.6582C12.6415 44.2556 12.7136 43.8976 12.858 43.5843C13.0024 43.2708 13.2089 43.0275 13.4778 42.8542C13.749 42.6808 14.0689 42.5942 14.4372 42.5942C14.8903 42.5942 15.2662 42.7332 15.5648 43.011C15.8659 43.2886 16.0264 43.6492 16.0465 44.0925H15.393C15.3731 43.8249 15.2735 43.6058 15.0943 43.4351C14.9177 43.2619 14.6986 43.1753 14.4372 43.1753C14.0863 43.1753 13.8138 43.3051 13.6196 43.5651C13.4281 43.8224 13.3321 44.1957 13.3321 44.6849V44.8186C13.3321 45.295 13.4281 45.662 13.6196 45.9193C13.8113 46.1768 14.0852 46.3054 14.441 46.3054ZM17.76 41.6695V42.6708H18.5142V43.2173H17.76V45.7817C17.76 45.9474 17.7937 46.0721 17.8609 46.1562C17.9281 46.2378 18.0426 46.2787 18.2044 46.2787C18.2839 46.2787 18.3935 46.2634 18.5328 46.2328V46.8061C18.3511 46.857 18.1745 46.8826 18.0027 46.8826C17.6942 46.8826 17.4614 46.7869 17.3045 46.5958C17.1478 46.4048 17.0694 46.1334 17.0694 45.7817V43.2173H16.3338V42.6708H17.0694V41.6695H17.76ZM25.507 46.8061H24.7863L22.0498 42.5179V46.8061H21.3293V41.2413H22.0498L24.7939 45.5487V41.2413H25.507V46.8061ZM29.1658 46.8061C29.1259 46.7245 29.0935 46.5794 29.0687 46.3703C28.7475 46.7117 28.3643 46.8826 27.9188 46.8826C27.5206 46.8826 27.1931 46.7679 26.9369 46.5385C26.6831 46.3066 26.5561 46.0136 26.5561 45.6595C26.5561 45.229 26.7153 44.8951 27.034 44.6582C27.355 44.4185 27.8056 44.2988 28.3855 44.2988H29.0575V43.9741C29.0575 43.7269 28.9853 43.5306 28.8408 43.3855C28.6966 43.2377 28.4837 43.1638 28.2025 43.1638C27.9561 43.1638 27.7496 43.2274 27.5828 43.3549C27.4161 43.4822 27.3326 43.6364 27.3326 43.8173H26.6382C26.6382 43.611 26.7092 43.4122 26.851 43.221C26.9954 43.0275 27.1896 42.8746 27.4335 42.7624C27.6799 42.6504 27.9498 42.5942 28.2435 42.5942C28.7089 42.5942 29.0736 42.714 29.3375 42.9536C29.6013 43.1906 29.7381 43.518 29.7482 43.9357V45.8391C29.7482 46.2188 29.7955 46.5207 29.8901 46.7448V46.8061H29.1658ZM28.0196 46.2672C28.2362 46.2672 28.4415 46.2099 28.6357 46.0952C28.8297 45.9805 28.9703 45.8315 29.0575 45.648V44.7996H28.5161C27.6699 44.7996 27.2467 45.053 27.2467 45.5601C27.2467 45.7817 27.319 45.9551 27.4632 46.0799C27.6076 46.2047 27.7931 46.2672 28.0196 46.2672ZM31.7679 41.6695V42.6708H32.5221V43.2173H31.7679V45.7817C31.7679 45.9474 31.8016 46.0721 31.8688 46.1562C31.936 46.2378 32.0505 46.2787 32.2123 46.2787C32.2918 46.2787 32.4014 46.2634 32.5409 46.2328V46.8061C32.359 46.857 32.1824 46.8826 32.0106 46.8826C31.7021 46.8826 31.4693 46.7869 31.3124 46.5958C31.1557 46.4048 31.0773 46.1334 31.0773 45.7817V43.2173H30.3419V42.6708H31.0773V41.6695H31.7679ZM34.0828 46.8061H33.392V42.6708H34.0828V46.8061ZM33.336 41.5738C33.336 41.4593 33.3697 41.3624 33.4368 41.2834C33.5065 41.2043 33.6085 41.165 33.7429 41.165C33.8774 41.165 33.9795 41.2043 34.0491 41.2834C34.1187 41.3624 34.1536 41.4593 34.1536 41.5738C34.1536 41.6885 34.1187 41.784 34.0491 41.8605C33.9795 41.9369 33.8774 41.9752 33.7429 41.9752C33.6085 41.9752 33.5065 41.9369 33.4368 41.8605C33.3697 41.784 33.336 41.6885 33.336 41.5738ZM36.5244 45.8468L37.5249 42.6708H38.2306L36.782 46.8061H36.2555L34.7921 42.6708H35.4977L36.5244 45.8468ZM40.5191 46.8826C39.9716 46.8826 39.5261 46.6991 39.1826 46.3322C38.8391 45.9627 38.6674 45.4696 38.6674 44.8531V44.7231C38.6674 44.3129 38.7433 43.9473 38.8951 43.6263C39.0494 43.3026 39.2634 43.0503 39.5373 42.8696C39.8136 42.6861 40.1122 42.5942 40.4332 42.5942C40.9584 42.5942 41.3667 42.7713 41.6579 43.1255C41.949 43.4797 42.0947 43.9867 42.0947 44.6466V44.9409H39.358C39.3681 45.3487 39.4837 45.6787 39.7053 45.9309C39.9292 46.1805 40.2131 46.3054 40.5564 46.3054C40.8004 46.3054 41.0071 46.2545 41.1763 46.1526C41.3455 46.0506 41.4937 45.9156 41.6207 45.7474L42.0425 46.0838C41.7039 46.6162 41.1961 46.8826 40.5191 46.8826ZM40.4332 43.1753C40.1546 43.1753 39.9205 43.2797 39.7314 43.4886C39.5422 43.6951 39.4252 43.9855 39.3806 44.36H41.4039V44.3066C41.3841 43.9474 41.2894 43.6695 41.1202 43.4733C40.951 43.2747 40.722 43.1753 40.4332 43.1753Z" fill="#61DAFB"/>
</svg>
