<svg width="44" height="44" viewBox="0 0 44 44" fill="none" xmlns="http://www.w3.org/2000/svg">
<path d="M25.7128 43.269C24.5582 44.6845 22.2172 43.9089 22.1894 42.1015L21.7826 15.6654H40.0406C43.3476 15.6654 45.192 19.3841 43.1357 21.9057L25.7128 43.269Z" fill="url(#paint0_linear_59_636)"/>
<path d="M25.7128 43.269C24.5582 44.6845 22.2172 43.9089 22.1894 42.1015L21.7826 15.6654H40.0406C43.3476 15.6654 45.192 19.3841 43.1357 21.9057L25.7128 43.269Z" fill="url(#paint1_linear_59_636)" fill-opacity="0.2"/>
<path d="M18.2873 0.731096C19.4419 -0.684593 21.7829 0.0911018 21.8107 1.89857L21.989 28.3346H3.95948C0.652367 28.3346 -1.19207 24.6159 0.864391 22.0944L18.2873 0.731096Z" fill="#3ECF8E"/>
<defs>
<linearGradient id="paint0_linear_59_636" x1="26.4176" y1="21.5269" x2="36.8014" y2="26.0001" gradientUnits="userSpaceOnUse">
<stop stop-color="#249361"/>
<stop offset="1" stop-color="#3ECF8E"/>
</linearGradient>
<linearGradient id="paint1_linear_59_636" x1="22.225" y1="11.937" x2="28.6693" y2="24.3973" gradientUnits="userSpaceOnUse">
<stop/>
<stop offset="1" stop-opacity="0"/>
</linearGradient>
</defs>
</svg>
