<svg width="44" height="44" viewBox="0 0 44 44" fill="none" xmlns="http://www.w3.org/2000/svg">
<g clip-path="url(#clip0_139_2)">
<path d="M22.0014 8.80066C16.1346 8.80066 12.4692 11.7328 11.0014 17.5996C13.2007 14.6671 15.7682 13.5674 18.7007 14.3007C20.3751 14.718 21.5717 15.9321 22.8969 17.2775C25.0536 19.4662 27.5499 22 33.0014 22C38.8678 22 42.5336 19.0674 44.0014 13.1993C41.8014 16.1333 39.2349 17.2335 36.3017 16.5C34.6277 16.0823 33.4325 14.8685 32.1056 13.5231C29.9503 11.3344 27.4547 8.80066 22.0014 8.80066ZM11.0014 22C5.13497 22 1.46922 24.9325 0.00140381 30.8007C2.20117 27.8666 4.76761 26.7664 7.70072 27.5C9.37512 27.9176 10.5717 29.1314 11.8969 30.4768C14.0536 32.6655 16.5499 35.1993 22.0014 35.1993C27.8678 35.1993 31.5336 32.2671 33.0014 26.4003C30.8014 29.333 28.2349 30.4326 25.3017 29.6993C23.6277 29.282 22.4325 28.0678 21.1056 26.7224C18.9503 24.5338 16.4547 22 11.0014 22Z" fill="#38BDF8"/>
</g>
<defs>
<clipPath id="clip0_139_2">
<rect width="44" height="44" fill="white"/>
</clipPath>
</defs>
</svg>
