<svg width="44" height="44" viewBox="0 0 44 44" fill="none" xmlns="http://www.w3.org/2000/svg">
<path d="M0 22V44H44V0H0V22Z" fill="#007ACC"/>
<path d="M9.73005 22.146L9.71613 23.9478H15.443V40.2209H19.4941V23.9478H25.221V22.1809C25.221 21.203 25.2 20.3859 25.1722 20.3649C25.1512 20.3371 21.6661 20.323 17.4407 20.33L9.75119 20.351L9.73022 22.1459L9.73005 22.146ZM35.5037 20.2998C36.6211 20.5792 37.4733 21.0749 38.2555 21.8851C38.6606 22.3183 39.2611 23.1075 39.3101 23.2961C39.3238 23.3519 37.4103 24.637 36.251 25.3563C36.2091 25.3843 36.0414 25.2027 35.8528 24.9232C35.2872 24.0992 34.6935 23.7429 33.7855 23.6802C32.4518 23.5893 31.5926 24.2878 31.5996 25.4539C31.5996 25.7963 31.6484 25.9988 31.7881 26.2783C32.0815 26.8858 32.6262 27.249 34.3374 27.9893C37.4872 29.3443 38.835 30.2383 39.6733 31.5093C40.6091 32.9272 40.8186 35.19 40.183 36.8731C39.4847 38.7029 37.7527 39.9463 35.315 40.3583C34.5608 40.4909 32.773 40.47 31.9628 40.3234C30.1959 40.009 28.5196 39.1361 27.4859 37.9907C27.0808 37.5436 26.2916 36.3773 26.3406 36.2934C26.3615 36.2656 26.543 36.1539 26.7455 36.0351C26.9411 35.9234 27.6815 35.4971 28.3799 35.0922L29.644 34.3588L29.9094 34.75C30.2796 35.3156 31.0896 36.0909 31.5786 36.3493C32.9823 37.0897 34.9101 36.9849 35.8599 36.1327C36.265 35.7627 36.4325 35.3785 36.4325 34.8127C36.4325 34.3029 36.3696 34.0795 36.1043 33.6955C35.7622 33.2065 35.0637 32.7944 33.0801 31.9355C30.8103 30.9576 29.8325 30.35 28.9386 29.3861C28.4218 28.8275 27.9328 27.9334 27.7303 27.1861C27.5628 26.5646 27.5207 25.0071 27.6535 24.3785C28.1215 22.1854 29.7767 20.6561 32.1652 20.202C32.9404 20.0554 34.7423 20.111 35.5037 20.2998Z" fill="white"/>
</svg>
